<?xml version="1.0" standalone="no"?>
<!DOCTYPE svg PUBLIC "-//W3C//DTD SVG 20010904//EN"
 "http://www.w3.org/TR/2001/REC-SVG-20010904/DTD/svg10.dtd">
<svg version="1.0" xmlns="http://www.w3.org/2000/svg"
 width="200.000000pt" height="200.000000pt" viewBox="0 0 200.000000 200.000000"
 preserveAspectRatio="xMidYMid meet">

<g transform="translate(0.000000,200.000000) scale(0.100000,-0.100000)"
fill="white" stroke="none">
<path d="M1495 1748 c-81 -29 -135 -106 -135 -192 0 -176 214 -264 341 -140
47 46 63 89 57 160 -8 100 -85 173 -187 180 -25 2 -59 -1 -76 -8z"/>
<path d="M1660 1312 c-27 -28 -50 -86 -50 -127 l1 -20 15 20 c44 59 66 75 105
75 52 0 89 -35 89 -84 0 -38 -44 -101 -123 -173 l-46 -43 9 -57 c9 -53 13
-133 8 -133 -2 0 -66 11 -142 25 -193 34 -219 34 -262 -9 -37 -37 -44 -81 -21
-123 23 -41 362 -391 395 -408 64 -32 144 8 158 80 7 41 -5 66 -73 143 l-53
59 89 -5 c78 -4 95 -2 135 17 67 33 95 95 103 233 9 161 -31 371 -90 467 -53
87 -188 121 -247 63z"/>
<path d="M1074 1250 c-29 -11 -54 -48 -54 -78 0 -14 -11 -33 -24 -43 -28 -22
-66 -95 -66 -126 0 -23 83 -103 106 -103 8 0 14 8 14 18 1 49 49 72 153 72 99
0 117 11 95 57 -10 22 -25 31 -76 44 -73 19 -122 59 -122 99 0 14 5 31 11 37
6 6 8 16 5 22 -8 13 -13 13 -42 1z m71 -185 c0 -22 -31 -33 -47 -17 -17 17 -1
44 24 40 15 -2 23 -10 23 -23z"/>
<path d="M1712 1243 c-7 -3 -50 -42 -95 -87 -129 -129 -260 -185 -433 -186
-87 0 -117 -18 -117 -70 0 -55 29 -70 137 -70 141 0 258 34 375 108 124 77
221 183 221 240 0 45 -48 81 -88 65z"/>
<path d="M776 1184 c-30 -30 -13 -74 29 -74 42 0 59 44 29 74 -8 9 -22 16 -29
16 -7 0 -21 -7 -29 -16z m58 -20 c7 -19 -10 -44 -29 -44 -19 0 -36 25 -29 44
3 9 16 16 29 16 13 0 26 -7 29 -16z"/>
<path d="M496 1154 c-19 -18 -20 -28 -6 -55 20 -37 80 -18 80 26 0 42 -44 59
-74 29z m64 -28 c0 -20 -27 -39 -45 -32 -18 7 -20 52 -2 59 17 6 47 -11 47
-27z"/>
<path d="M647 1139 c-18 -13 -27 -30 -27 -49 0 -36 43 -73 74 -64 27 7 56 41
56 64 0 23 -29 57 -56 64 -13 4 -30 -1 -47 -15z m67 -15 c9 -8 16 -24 16 -34
0 -20 -25 -50 -41 -50 -27 0 -49 22 -49 50 0 44 44 65 74 34z"/>
<path d="M255 1100 c-4 -12 1 -31 14 -48 30 -42 106 -110 145 -129 l34 -16
-16 -33 c-9 -20 -23 -34 -33 -34 -21 0 -59 -37 -59 -57 0 -21 14 -15 25 10 14
31 58 35 78 6 9 -12 13 -27 11 -34 -6 -14 11 -19 100 -31 35 -5 47 -3 42 4 -9
15 9 48 30 56 23 9 64 -20 64 -44 0 -14 -7 -21 -22 -22 -34 -2 155 -16 239
-17 l73 -1 -6 29 c-11 53 61 78 86 31 6 -10 7 -26 4 -34 -3 -9 -1 -16 5 -16
15 0 14 41 -2 79 -7 17 -44 57 -83 89 l-69 57 -81 0 c-61 0 -87 4 -100 16 -11
9 -44 20 -76 23 -35 5 -58 13 -62 22 -15 40 -102 35 -113 -6 -3 -11 -9 -20
-13 -20 -14 0 -86 57 -122 98 -42 47 -82 56 -93 22z m321 -105 c15 -23 15 -27
0 -50 -19 -29 -42 -32 -68 -8 -22 20 -23 41 -1 65 23 25 50 23 69 -7z m142
-58 c3 -23 0 -27 -23 -27 -30 0 -43 24 -25 46 19 22 45 13 48 -19z m176 -34
c4 -9 1 -23 -7 -30 -7 -8 -21 -11 -30 -7 -17 6 -23 35 -10 47 12 13 41 7 47
-10z m-86 -72 c8 -4 12 -19 10 -32 -2 -19 -9 -24 -33 -24 -21 0 -31 5 -33 18
-8 40 22 60 56 38z"/>
<path d="M780 1031 c-20 -38 21 -82 59 -62 24 13 30 31 20 59 -11 29 -63 31
-79 3z m65 -21 c0 -18 -6 -26 -23 -28 -24 -4 -38 18 -28 44 3 9 15 14 28 12
17 -2 23 -10 23 -28z"/>
<path d="M226 924 c-21 -20 -20 -37 2 -57 33 -30 72 -15 72 28 0 42 -44 59
-74 29z m58 -17 c16 -25 -16 -56 -38 -37 -19 15 -21 46 -3 53 18 8 29 3 41
-16z"/>
<path d="M12 838 c-27 -27 -14 -57 36 -81 96 -49 253 -93 437 -122 111 -18
589 -32 698 -21 l63 7 -20 42 -21 42 -295 0 c-233 0 -319 4 -408 18 -143 23
-286 60 -376 98 -78 32 -96 35 -114 17z"/>
<path d="M86 688 c3 -18 26 -100 50 -183 49 -172 57 -183 160 -215 88 -27 198
-38 439 -46 307 -10 537 16 590 66 23 22 65 118 65 149 0 9 -27 43 -60 76
l-59 59 -328 1 c-260 1 -351 4 -438 18 -137 22 -294 59 -366 86 -30 12 -55 21
-57 21 -2 0 0 -15 4 -32z"/>
</g>
</svg>
