<?xml version="1.0" standalone="no"?>
<!DOCTYPE svg PUBLIC "-//W3C//DTD SVG 20010904//EN"
 "http://www.w3.org/TR/2001/REC-SVG-20010904/DTD/svg10.dtd">
<svg version="1.0" xmlns="http://www.w3.org/2000/svg"
 width="200.000000pt" height="200.000000pt" viewBox="0 0 200.000000 200.000000"
 preserveAspectRatio="xMidYMid meet">

<g transform="translate(0.000000,200.000000) scale(0.100000,-0.100000)"
fill="white" stroke="none">
<path d="M542 1641 c-73 -25 -122 -67 -157 -136 -58 -113 -33 -252 59 -333 64
-56 93 -67 186 -67 100 0 143 17 207 82 107 111 97 296 -22 401 -79 69 -173
88 -273 53z m141 -40 c21 -5 56 -21 79 -36 l40 -27 -32 -31 c-73 -70 -91 -182
-45 -272 13 -27 22 -52 19 -56 -8 -13 -75 -29 -119 -29 -40 0 -102 24 -140 53
-19 15 -18 16 21 59 68 73 82 184 34 265 -26 44 -25 49 8 61 56 22 83 25 135
13z m-189 -98 c22 -45 28 -89 16 -133 -12 -46 -61 -107 -78 -97 -16 10 -33
101 -25 139 10 52 45 118 64 118 5 0 15 -12 23 -27z m352 -48 c28 -68 8 -184
-39 -223 -14 -12 -18 -8 -36 27 -36 69 -24 148 32 209 11 12 22 22 24 22 2 0
11 -16 19 -35z"/>
<path d="M1274 1400 c-43 -14 -101 -80 -110 -127 -5 -26 -2 -53 10 -87 15 -40
15 -51 4 -61 -7 -7 -94 -81 -192 -165 l-180 -153 -37 21 c-24 14 -55 22 -84
22 -100 0 -165 -63 -165 -158 0 -83 33 -132 107 -157 32 -11 39 -19 46 -51 11
-57 43 -100 91 -123 52 -26 89 -26 142 -2 78 36 115 132 81 213 l-15 37 194
166 194 167 33 -20 c73 -44 147 -35 208 27 52 51 61 111 28 178 -26 51 -77 93
-115 93 -20 0 -24 5 -24 30 0 44 -34 105 -73 129 -40 25 -101 33 -143 21z
m128 -79 c30 -27 33 -34 33 -88 l0 -58 35 -3 c94 -8 141 -66 119 -147 -21 -76
-119 -100 -182 -45 -19 17 -37 30 -41 30 -8 0 -439 -368 -451 -385 -6 -10 -2
-26 13 -53 31 -55 28 -94 -8 -135 -36 -41 -78 -52 -125 -33 -47 20 -69 58 -70
120 l0 51 -49 6 c-102 11 -142 115 -72 185 46 46 100 48 149 4 19 -17 40 -30
46 -30 11 0 439 361 455 384 6 9 2 23 -11 42 -29 42 -35 79 -19 118 30 72 119
90 178 37z"/>
</g>
</svg>
