<?xml version="1.0" standalone="no"?>
<!DOCTYPE svg PUBLIC "-//W3C//DTD SVG 20010904//EN"
 "http://www.w3.org/TR/2001/REC-SVG-20010904/DTD/svg10.dtd">
<svg version="1.0" xmlns="http://www.w3.org/2000/svg"
 width="512.000000pt" height="512.000000pt" viewBox="0 0 512.000000 512.000000"
 preserveAspectRatio="xMidYMid meet">

<g transform="translate(0.000000,512.000000) scale(0.100000,-0.100000)"
fill="current" stroke="white" stroke-width= "2">
<path d="M530 4801 c-83 -26 -150 -82 -191 -161 l-24 -45 0 -2035 0 -2035 24
-45 c32 -61 76 -107 136 -138 l50 -27 1043 -3 c716 -2 1049 1 1062 8 20 11 20
26 20 889 0 805 -1 880 -17 892 -12 11 -75 15 -285 17 l-268 3 2 277 3 277
269 3 c178 1 274 6 283 13 10 9 13 68 13 273 1 402 17 518 96 683 96 200 272
329 515 379 71 14 125 16 361 12 152 -3 281 -9 287 -12 7 -5 11 -85 11 -252
l0 -244 -132 0 c-186 -1 -317 -14 -370 -38 -69 -30 -124 -85 -150 -150 -21
-54 -22 -74 -26 -343 -3 -256 -2 -288 13 -302 15 -15 51 -17 320 -17 167 0
306 -4 309 -8 2 -4 -11 -124 -29 -267 -19 -143 -35 -265 -35 -272 0 -9 -69
-13 -276 -15 -259 -3 -276 -4 -290 -22 -12 -17 -14 -154 -14 -886 0 -832 1
-868 19 -884 17 -15 71 -16 677 -14 l659 3 50 27 c60 31 104 77 136 138 l24
45 0 2035 0 2035 -27 50 c-31 60 -77 104 -138 136 l-45 24 -2020 2 c-1111 1
-2031 -2 -2045 -6z m4045 -102 c51 -14 110 -73 124 -124 16 -57 16 -3973 0
-4030 -14 -51 -73 -110 -124 -124 -27 -7 -232 -11 -637 -11 l-598 0 0 800 0
799 270 3 c223 2 272 6 284 18 10 10 27 114 56 330 22 173 43 329 46 347 4 23
1 36 -15 52 -20 20 -30 21 -332 21 l-311 0 4 248 c4 287 8 304 93 357 l48 30
255 5 c236 5 255 6 268 24 11 16 14 78 14 331 0 284 -2 313 -17 328 -41 36
-602 52 -764 21 -279 -52 -509 -236 -607 -484 -63 -160 -82 -308 -82 -636 l0
-224 -269 0 c-268 0 -270 0 -285 -22 -23 -32 -24 -693 -2 -724 14 -18 31 -19
285 -22 l271 -3 0 -799 0 -800 -982 0 c-686 0 -995 3 -1023 11 -51 14 -110 73
-124 124 -15 55 -16 3973 0 4028 14 51 64 104 114 122 34 12 340 14 2020 15
1415 0 1991 -3 2020 -11z"/>
</g>
</svg>
