<?xml version="1.0" standalone="no"?>
<!DOCTYPE svg PUBLIC "-//W3C//DTD SVG 20010904//EN"
 "http://www.w3.org/TR/2001/REC-SVG-20010904/DTD/svg10.dtd">
<svg version="1.0" xmlns="http://www.w3.org/2000/svg"
 width="512.000000pt" height="512.000000pt" viewBox="0 0 512.000000 512.000000"
 preserveAspectRatio="xMidYMid meet">

<g transform="translate(0.000000,512.000000) scale(0.100000,-0.100000)"
fill="white" stroke="none">
<path d="M1712 4500 c-64 -32 -90 -59 -205 -209 l-49 -63 -91 8 c-125 11 -180
7 -327 -22 -213 -41 -229 -41 -355 -1 -463 150 -612 123 -672 -118 -22 -88 -8
-179 42 -274 81 -153 206 -254 409 -331 54 -20 103 -45 108 -54 5 -9 12 -75
15 -146 l6 -129 26 -5 c14 -3 258 -49 541 -101 283 -53 522 -98 531 -101 13
-3 29 72 104 498 48 277 94 527 102 557 7 29 36 103 65 163 40 88 52 124 55
177 4 57 2 71 -19 100 -40 59 -71 75 -151 79 -65 3 -78 0 -135 -28z"/>
<path d="M3135 3415 c-153 -48 -261 -150 -311 -294 l-23 -66 -318 -5 -318 -5
-65 -31 c-70 -34 -137 -95 -176 -161 l-25 -42 598 -878 598 -878 270 -5 c303
-6 310 -7 388 -79 87 -80 116 -219 69 -325 -12 -27 -22 -50 -22 -52 0 -2 224
-4 498 -4 560 0 560 0 660 73 60 44 94 88 130 165 l27 57 3 895 c2 645 0 912
-8 955 -21 107 -76 191 -163 248 -98 64 -117 67 -453 67 l-303 0 -12 42 c-39
147 -161 273 -307 318 -58 18 -92 20 -381 19 -226 -1 -327 -5 -356 -14z m665
-185 c59 -16 128 -67 160 -117 17 -26 30 -51 30 -55 0 -4 -220 -8 -490 -8
-405 0 -490 2 -490 13 0 21 51 92 84 118 66 52 109 58 401 59 149 0 286 -5
305 -10z m-70 -935 l0 -235 235 0 235 0 0 -235 0 -235 -235 0 -235 0 0 -235 0
-235 -235 0 -235 0 0 235 0 235 -235 0 -235 0 2 233 3 232 233 3 232 2 0 229
c0 125 3 231 7 234 3 4 109 7 235 7 l228 0 0 -235z"/>
<path d="M580 2941 c0 -4 -95 -476 -211 -1047 -222 -1094 -221 -1091 -183
-1166 44 -88 117 -132 219 -132 101 0 175 44 218 130 9 17 68 282 132 590 64
307 119 567 123 577 5 12 65 -100 214 -398 l208 -415 -133 0 c-117 0 -138 -3
-182 -24 -117 -54 -169 -171 -134 -301 14 -52 102 -139 156 -154 26 -8 438
-11 1307 -11 l1268 0 39 22 c105 59 99 221 -9 274 -33 17 -71 20 -322 24
l-285 5 -603 885 c-331 487 -608 893 -615 903 -9 14 -136 42 -597 132 -322 63
-591 115 -597 115 -7 0 -13 -4 -13 -9z"/>
</g>
</svg>
