<?xml version="1.0" standalone="no"?>
<!DOCTYPE svg PUBLIC "-//W3C//DTD SVG 20010904//EN"
 "http://www.w3.org/TR/2001/REC-SVG-20010904/DTD/svg10.dtd">
<svg version="1.0" xmlns="http://www.w3.org/2000/svg"
 width="512.000000pt" height="512.000000pt" viewBox="0 0 512.000000 512.000000"
 preserveAspectRatio="xMidYMid meet">

<g transform="translate(0.000000,512.000000) scale(0.100000,-0.100000)"
fill="current" stroke="none">
<path d="M1470 4745 c-293 -51 -530 -174 -732 -381 -176 -181 -290 -397 -345
-654 -17 -79 -18 -158 -18 -1155 0 -998 1 -1076 18 -1155 59 -274 180 -493
376 -683 186 -179 392 -288 651 -344 79 -17 158 -18 1170 -18 l1085 0 117 32
c237 64 421 167 590 331 199 193 324 424 380 702 10 51 13 293 13 1135 0 1007
-1 1075 -19 1155 -56 257 -176 479 -356 661 -184 186 -392 300 -665 366 -63
15 -174 17 -1130 19 -833 2 -1076 0 -1135 -11z m2091 -245 c188 -18 358 -78
510 -180 82 -56 213 -187 269 -269 57 -85 124 -229 149 -321 39 -140 43 -252
38 -1235 -3 -804 -6 -951 -20 -1017 -98 -484 -467 -822 -945 -868 -136 -13
-1852 -13 -1982 0 -178 18 -354 81 -501 181 -83 56 -215 187 -269 268 -59 89
-125 231 -149 326 -36 137 -41 272 -41 1170 0 898 5 1033 41 1170 24 95 90
237 149 326 54 81 186 212 269 268 144 98 325 164 493 180 124 12 1864 13
1989 1z"/>
<path d="M3653 4226 c-108 -35 -214 -133 -254 -234 -33 -82 -33 -232 0 -315
32 -81 115 -168 199 -209 64 -32 72 -33 182 -33 110 0 119 2 181 32 82 41 150
111 192 201 29 61 32 75 32 167 0 91 -3 106 -31 165 -41 87 -116 162 -201 203
-60 28 -79 32 -163 34 -59 2 -111 -3 -137 -11z m206 -263 c14 -11 37 -35 49
-54 20 -28 23 -43 20 -87 -4 -45 -10 -59 -40 -89 -29 -29 -45 -37 -87 -41 -63
-6 -92 2 -130 34 -80 67 -56 205 44 250 39 18 110 12 144 -13z"/>
<path d="M2484 3629 c-445 -32 -833 -360 -956 -809 -20 -74 -23 -108 -23 -265
0 -157 3 -191 23 -265 72 -261 237 -493 454 -634 195 -127 371 -178 603 -177
286 2 536 105 739 306 146 144 241 308 293 503 23 86 26 116 26 267 0 141 -3
183 -20 245 -67 243 -184 433 -359 581 -217 184 -484 268 -780 248z m291 -275
c300 -81 524 -310 595 -607 27 -111 27 -273 0 -384 -72 -299 -294 -525 -600
-609 -100 -28 -300 -25 -405 4 -296 85 -502 292 -587 590 -32 109 -32 305 0
414 92 324 339 549 664 607 73 14 260 5 333 -15z"/>
</g>
</svg>
