<?xml version="1.0" standalone="no"?>
<!DOCTYPE svg PUBLIC "-//W3C//DTD SVG 20010904//EN"
 "http://www.w3.org/TR/2001/REC-SVG-20010904/DTD/svg10.dtd">
<svg version="1.0" xmlns="http://www.w3.org/2000/svg"
 width="512.000000pt" height="512.000000pt" viewBox="0 0 512.000000 512.000000"
 preserveAspectRatio="xMidYMid meet">

<g transform="translate(0.000000,512.000000) scale(0.100000,-0.100000)"
fill="white" stroke="none">
<path d="M2680 3947 c-19 -9 -682 -790 -763 -898 -11 -14 -90 -21 -575 -48
-326 -19 -588 -29 -620 -25 -203 24 -386 138 -503 311 -55 81 -81 103 -122
103 -39 0 -64 -15 -83 -52 -22 -42 -13 -75 41 -159 102 -158 257 -282 435
-348 l56 -21 -41 -82 c-48 -100 -65 -175 -65 -294 0 -102 17 -185 61 -301 l31
-82 -44 -58 c-131 -170 -158 -215 -158 -259 0 -23 20 -149 44 -280 55 -293 53
-289 180 -289 92 0 110 8 132 62 12 28 10 49 -11 170 -14 76 -27 146 -29 155
-3 13 74 76 288 236 289 218 343 263 381 313 l20 26 190 -41 c105 -23 261 -55
348 -71 137 -26 158 -33 162 -50 3 -11 29 -179 60 -373 30 -193 61 -365 69
-381 26 -49 119 -67 192 -36 62 26 64 37 64 468 0 329 2 386 15 397 26 21 73
112 100 195 37 107 64 265 72 408 4 80 10 116 17 113 210 -94 370 -95 552 -3
79 40 151 102 164 141 18 56 -4 89 -137 206 l-119 105 -12 72 c-12 77 -27 108
-76 161 l-30 32 22 84 c35 134 28 176 -34 202 -34 14 -50 12 -128 -21 -18 -8
-19 -4 -13 61 7 88 -9 129 -57 149 -42 18 -44 18 -76 2z"/>
<path d="M3785 2986 c-45 -14 -103 -42 -125 -61 -8 -7 -41 -15 -73 -19 -32 -3
-73 -12 -91 -20 -43 -18 -98 -77 -117 -127 -14 -38 -24 -45 -110 -88 l-94 -46
-3 -47 c-8 -131 137 -271 313 -301 l66 -11 -8 -76 c-4 -41 -7 -127 -7 -190 2
-175 38 -291 115 -373 l39 -40 0 -166 c0 -200 4 -211 80 -211 29 0 54 6 63 14
8 8 23 73 36 152 12 76 23 139 25 141 2 2 44 8 94 13 120 13 285 48 462 100
80 23 153 45 162 47 11 3 72 -35 165 -102 81 -59 151 -110 155 -114 3 -3 -2
-51 -13 -105 -17 -90 -17 -102 -4 -123 13 -19 24 -23 70 -23 46 0 57 4 69 23
11 18 66 286 66 323 0 6 -29 51 -64 99 l-64 89 18 41 c44 102 51 222 19 317
l-21 62 26 19 c97 70 62 221 -55 242 -72 13 -154 -63 -147 -137 l4 -38 -368 0
-368 0 41 37 c79 72 106 168 72 259 -20 50 -20 52 -1 87 92 180 -68 368 -311
366 -42 0 -94 -6 -116 -13z"/>
</g>
</svg>
