<?xml version="1.0" standalone="no"?>
<!DOCTYPE svg PUBLIC "-//W3C//DTD SVG 20010904//EN"
 "http://www.w3.org/TR/2001/REC-SVG-20010904/DTD/svg10.dtd">
<svg version="1.0" xmlns="http://www.w3.org/2000/svg"
 width="512.000000pt" height="512.000000pt" viewBox="0 0 512.000000 512.000000"
 preserveAspectRatio="xMidYMid meet">

<g transform="translate(0.000000,512.000000) scale(0.100000,-0.100000)"
fill="white" stroke="none">
<path d="M1767 4866 c-81 -30 -138 -86 -165 -165 -9 -24 -12 -178 -12 -532 l0
-499 -409 0 c-375 0 -410 -1 -429 -17 -23 -20 -475 -648 -498 -691 -17 -34
-20 -483 -3 -562 18 -86 110 -179 176 -180 l23 0 2 -966 3 -966 28 -24 28 -24
2055 0 2055 0 24 25 25 24 0 960 0 960 38 10 c56 16 108 56 139 109 l28 47 3
290 3 290 -241 335 c-133 184 -251 345 -263 358 l-20 22 -413 0 -413 0 -3 513
c-3 473 -4 515 -21 549 -25 49 -76 100 -123 124 -37 18 -72 19 -809 21 -629 2
-777 0 -808 -11z m1579 -179 l24 -28 0 -644 0 -645 -29 -32 -29 -33 -752 0
-752 0 -29 33 -29 32 0 643 c0 697 -2 675 54 697 11 5 358 8 769 7 l749 -2 24
-28z m-1754 -1269 c5 -107 25 -155 84 -208 79 -69 26 -65 884 -65 858 0 805
-4 884 65 59 53 79 101 84 208 l4 92 376 -2 376 -3 177 -245 c98 -135 178
-248 178 -252 1 -5 -933 -8 -2074 -8 -1304 0 -2075 4 -2075 9 0 8 238 350 327
469 l24 32 373 0 374 0 4 -92z m-854 -794 c-4 -269 6 -254 -170 -254 -113 0
-120 1 -143 25 -25 24 -25 24 -25 235 l0 210 171 0 170 0 -3 -216z m502 22 c0
-200 -7 -249 -40 -266 -10 -6 -72 -10 -136 -10 -172 0 -164 -13 -164 257 l0
213 170 0 170 0 0 -194z m490 -18 c0 -272 9 -258 -167 -258 -173 0 -163 -16
-163 255 l0 215 165 0 165 0 0 -212z m500 0 c0 -271 9 -258 -166 -258 -179 0
-168 -16 -172 254 l-3 216 170 0 171 0 0 -212z m500 2 c0 -211 0 -211 -25
-235 -23 -24 -30 -25 -145 -25 -115 0 -122 1 -145 25 -25 24 -25 24 -25 235
l0 210 170 0 170 0 0 -210z m498 -6 c-4 -269 7 -254 -171 -254 -176 0 -167
-14 -167 257 l0 213 171 0 170 0 -3 -216z m492 4 c0 -271 9 -258 -165 -258
-175 0 -165 -15 -165 255 l0 215 165 0 165 0 0 -212z m500 0 c0 -271 8 -258
-162 -258 -66 0 -128 4 -138 10 -33 17 -40 66 -40 266 l0 194 170 0 170 0 0
-212z m500 2 c0 -211 0 -211 -25 -235 -23 -24 -30 -25 -143 -25 -176 0 -166
-15 -170 254 l-3 216 170 0 171 0 0 -210z m-3660 -420 c138 0 184 8 230 41 23
16 26 16 50 0 47 -33 92 -41 230 -41 130 0 140 1 192 28 l55 28 38 -26 c36
-23 48 -25 183 -28 151 -4 208 4 252 38 23 18 25 18 50 1 47 -33 92 -41 230
-41 130 0 140 1 193 28 53 27 56 27 77 10 36 -29 89 -38 231 -38 132 0 139 1
193 29 35 19 58 26 62 19 4 -5 25 -19 48 -29 33 -15 66 -19 176 -19 142 0 194
9 231 39 22 18 24 17 78 -11 l56 -30 156 4 c147 3 158 4 194 28 l38 26 55 -28
c37 -19 70 -28 103 -28 l49 0 0 -905 0 -905 -135 0 -135 0 0 835 0 836 -25 24
-24 25 -664 0 c-657 0 -665 0 -691 -21 l-26 -20 0 -840 0 -839 -1100 0 -1100
0 0 905 0 905 43 0 c54 0 109 16 137 38 21 17 24 17 77 -10 53 -27 63 -28 193
-28z m3020 -1030 l0 -780 -555 0 -555 0 0 780 0 780 555 0 555 0 0 -780z"/>
<path d="M2274 4631 c-25 -12 -50 -33 -65 -57 -21 -34 -24 -51 -24 -134 0 -76
4 -104 21 -141 28 -60 87 -116 136 -130 35 -9 46 -7 86 13 65 32 92 86 92 183
0 131 -48 227 -134 266 -51 23 -61 23 -112 0z"/>
<path d="M2731 4629 c-85 -43 -137 -154 -129 -278 5 -78 29 -133 72 -164 74
-53 176 -10 231 98 27 53 30 68 30 154 0 82 -3 101 -23 132 -44 72 -110 93
-181 58z"/>
<path d="M1965 4346 c-65 -29 -95 -84 -95 -174 0 -208 253 -338 350 -180 29
48 34 117 15 185 -13 45 -29 70 -68 109 -69 69 -137 89 -202 60z"/>
<path d="M3015 4341 c-80 -36 -136 -122 -142 -221 -4 -54 0 -73 19 -110 27
-52 78 -90 122 -90 127 0 236 118 236 255 0 146 -109 223 -235 166z"/>
<path d="M2475 4073 c-215 -45 -373 -215 -392 -419 -11 -121 58 -199 217 -245
107 -30 335 -38 451 -15 154 31 256 96 281 179 9 30 9 55 0 110 -33 189 -171
339 -353 382 -60 14 -159 18 -204 8z m228 -187 c95 -46 166 -146 170 -239 2
-40 0 -43 -43 -64 -64 -32 -138 -44 -270 -44 -132 0 -206 12 -270 44 -44 22
-45 23 -44 68 3 81 74 186 156 230 87 47 212 49 301 5z"/>
<path d="M856 2099 l-26 -20 0 -614 0 -614 26 -20 c27 -21 32 -21 854 -21
l827 0 24 26 24 26 0 605 0 605 -28 24 -28 24 -823 0 c-818 0 -823 0 -850 -21z
m1574 -634 l0 -495 -720 0 -720 0 0 495 0 495 720 0 720 0 0 -495z"/>
</g>
</svg>
