<?xml version="1.0" standalone="no"?>
<!DOCTYPE svg PUBLIC "-//W3C//DTD SVG 20010904//EN"
 "http://www.w3.org/TR/2001/REC-SVG-20010904/DTD/svg10.dtd">
<svg version="1.0" xmlns="http://www.w3.org/2000/svg"
 width="200.000000pt" height="200.000000pt" viewBox="0 0 200.000000 200.000000"
 preserveAspectRatio="xMidYMid meet">

<g transform="translate(0.000000,200.000000) scale(0.100000,-0.100000)"
fill="white" stroke="none">
<path d="M570 1405 l-435 -435 92 0 92 0 3 -369 c3 -347 4 -370 22 -390 18
-19 29 -21 162 -21 197 0 182 -24 186 289 3 232 4 249 26 297 29 64 102 136
167 165 145 65 331 -3 402 -149 28 -57 28 -58 33 -309 6 -322 -11 -298 213
-295 172 3 157 -37 157 412 l0 370 97 0 98 0 -435 435 c-239 239 -437 435
-440 435 -3 0 -201 -196 -440 -435z m772 -12 c181 -181 328 -331 328 -335 0
-5 -13 -8 -29 -8 -27 0 -29 -3 -35 -52 -3 -29 -6 -205 -6 -390 l0 -338 -95 0
-95 0 0 188 c0 209 -10 293 -44 367 -88 194 -337 281 -528 187 -79 -39 -159
-120 -196 -199 -27 -57 -27 -61 -30 -300 l-3 -243 -100 0 -99 0 0 368 c0 202
-3 377 -6 390 -5 17 -14 22 -38 22 -29 0 -6 24 304 335 184 184 337 335 340
335 3 0 152 -147 332 -327z"/>
<path d="M926 1454 c-29 -29 -16 -93 24 -114 45 -24 71 69 30 110 -24 24 -34
25 -54 4z"/>
<path d="M1047 1442 c-24 -27 -31 -73 -14 -97 33 -43 97 32 77 90 -9 27 -42
30 -63 7z"/>
<path d="M842 1358 c-32 -32 13 -117 56 -104 17 6 22 15 22 42 0 53 -48 92
-78 62z"/>
<path d="M1106 1318 c-30 -42 -17 -88 25 -88 22 0 49 42 49 75 0 32 -2 35 -29
35 -20 0 -35 -8 -45 -22z"/>
<path d="M938 1253 c-43 -46 -60 -76 -52 -97 8 -22 27 -26 75 -14 31 6 56 6
82 -2 81 -24 92 45 19 123 -38 40 -79 37 -124 -10z"/>
</g>
</svg>
