<?xml version="1.0" standalone="no"?>
<!DOCTYPE svg PUBLIC "-//W3C//DTD SVG 20010904//EN"
 "http://www.w3.org/TR/2001/REC-SVG-20010904/DTD/svg10.dtd">
<svg version="1.0" xmlns="http://www.w3.org/2000/svg"
 width="200.000000pt" height="200.000000pt" viewBox="0 0 200.000000 200.000000"
 preserveAspectRatio="xMidYMid meet">

<g transform="translate(0.000000,200.000000) scale(0.100000,-0.100000)"
fill="white" stroke="none">
<path d="M1500 1887 c-51 -27 -90 -90 -90 -147 0 -85 83 -170 166 -170 143 0
224 171 131 277 -58 66 -132 80 -207 40z"/>
<path d="M1555 1545 c-5 -2 -22 -6 -37 -9 -37 -8 -98 -63 -114 -103 -15 -36
-20 -243 -5 -243 4 0 28 26 52 57 72 93 84 103 124 103 79 0 109 -81 59 -156
-38 -57 -132 -150 -191 -190 l-53 -35 0 -137 c0 -112 4 -145 19 -178 22 -48
59 -80 112 -96 l39 -11 0 -194 c0 -193 0 -194 25 -218 30 -31 47 -31 212 -5
110 18 131 24 151 46 28 32 28 76 -1 110 -26 30 -46 32 -145 19 l-63 -8 7 539
c8 580 7 585 -43 645 -36 42 -111 75 -148 64z"/>
<path d="M940 1480 c-25 -25 -26 -52 -2 -77 18 -20 209 -113 233 -113 8 0 56
16 107 36 89 35 92 36 92 67 0 18 9 49 20 70 11 20 16 37 11 37 -4 0 -56 -20
-115 -45 l-106 -44 -92 44 c-103 51 -120 53 -148 25z"/>
<path d="M750 1450 c-39 -19 -70 -28 -102 -28 -59 1 -106 -27 -138 -84 -22
-39 -25 -57 -28 -176 -4 -124 -6 -135 -28 -159 -13 -14 -33 -46 -46 -72 -12
-25 -47 -73 -78 -106 -97 -105 -200 -269 -223 -354 -4 -17 -11 -19 -43 -15
l-39 5 36 -20 c31 -17 37 -26 42 -66 8 -54 36 -111 70 -144 21 -19 24 -28 17
-46 -13 -35 5 -44 112 -55 53 -5 108 -14 123 -20 22 -8 33 -7 51 5 51 33 13
63 -90 71 -42 4 -79 11 -82 15 -5 9 49 93 67 105 6 4 35 6 63 5 33 0 60 5 72
14 19 15 19 15 0 30 -11 8 -35 15 -53 15 -43 0 -42 13 4 55 33 31 36 37 27 62
-9 27 -8 28 36 44 25 9 52 19 61 23 13 6 20 -8 38 -78 11 -47 21 -100 21 -119
0 -18 5 -38 11 -44 6 -6 19 -40 28 -75 l16 -63 43 -3 c56 -4 64 16 24 63 -17
19 -33 49 -36 67 -3 18 -10 65 -17 103 -15 93 -6 220 23 327 23 81 29 91 92
158 74 79 109 102 141 94 17 -4 23 1 31 28 l11 33 -65 -3 c-61 -4 -69 -7 -124
-53 -33 -27 -63 -49 -67 -49 -13 0 -31 82 -38 170 -6 77 -5 79 23 107 16 15
51 40 77 55 65 38 62 88 -4 71 l-23 -6 22 30 c24 34 29 85 10 101 -9 7 -29 2
-68 -18z"/>
<path d="M1496 1251 c-107 -134 -229 -201 -364 -201 -81 0 -112 -17 -112 -60
0 -49 34 -63 133 -58 140 8 260 65 372 174 81 79 119 142 106 176 -10 26 -29
38 -61 38 -12 0 -41 -28 -74 -69z"/>
<path d="M1114 738 c-28 -13 -47 -50 -46 -85 1 -15 25 -138 55 -272 49 -219
57 -247 81 -268 38 -32 81 -30 117 6 16 16 29 36 29 43 0 7 -18 97 -40 198
-22 101 -40 188 -40 193 0 5 23 6 50 3 28 -3 73 -9 102 -12 l51 -6 -35 30
c-34 30 -61 80 -72 133 -5 25 -10 27 -106 38 -117 13 -118 13 -146 -1z"/>
</g>
</svg>
