<?xml version="1.0" standalone="no"?>
<!DOCTYPE svg PUBLIC "-//W3C//DTD SVG 20010904//EN"
 "http://www.w3.org/TR/2001/REC-SVG-20010904/DTD/svg10.dtd">
<svg version="1.0" xmlns="http://www.w3.org/2000/svg"
 width="512.000000pt" height="512.000000pt" viewBox="0 0 512.000000 512.000000"
 preserveAspectRatio="xMidYMid meet">

<g transform="translate(0.000000,512.000000) scale(0.100000,-0.100000)"
fill="white" stroke="none">
<path d="M2240 5105 c-238 -48 -449 -216 -550 -439 -64 -140 -63 -135 -67
-673 l-4 -492 -492 -4 c-538 -4 -533 -3 -673 -67 -157 -71 -292 -200 -368
-352 -74 -149 -79 -176 -84 -481 -4 -291 4 -370 53 -490 76 -190 241 -355 429
-431 126 -50 198 -56 687 -56 l448 0 4 -493 c3 -434 6 -499 21 -552 87 -292
308 -499 599 -559 108 -23 526 -23 635 0 313 64 553 309 607 619 11 64 15 160
15 360 0 309 -7 285 88 285 72 -1 139 -25 221 -78 108 -71 159 -86 291 -86
109 -1 119 1 182 31 154 73 237 221 238 424 0 161 -60 308 -185 449 -76 86
-109 131 -230 319 -144 224 -278 302 -520 302 -260 0 -391 -84 -565 -365 -47
-75 -127 -185 -177 -244 -142 -163 -193 -285 -193 -460 0 -224 99 -383 277
-441 109 -36 259 -24 363 29 l40 20 0 -225 c0 -262 -12 -339 -68 -455 -74
-152 -240 -280 -407 -315 -98 -20 -493 -20 -590 0 -109 23 -207 76 -290 159
-77 77 -120 144 -156 246 -23 64 -23 76 -28 580 -7 572 -3 541 -75 593 -31 22
-34 22 -546 28 -504 5 -516 5 -580 28 -209 73 -362 243 -405 446 -20 98 -20
492 0 590 23 109 76 207 159 290 77 77 144 120 246 156 64 23 76 23 580 28
512 6 515 6 546 28 72 52 68 21 75 593 5 504 5 516 28 580 73 209 243 362 446
405 98 20 492 20 590 0 109 -23 207 -76 290 -159 78 -77 120 -145 156 -246 22
-62 23 -80 27 -450 l3 -385 -38 37 c-79 76 -217 119 -315 98 -69 -14 -161 -65
-203 -111 -133 -147 -174 -436 -90 -642 77 -191 202 -309 360 -338 153 -28
313 65 390 226 65 135 66 156 62 875 -3 583 -5 651 -21 705 -87 293 -309 500
-598 559 -99 21 -538 21 -638 1z m889 -1465 c41 -20 94 -75 128 -130 68 -112
89 -306 45 -424 -46 -126 -109 -180 -207 -180 -68 0 -122 31 -172 96 -84 110
-118 219 -110 353 9 141 62 246 149 289 60 31 102 30 167 -4z m643 -1202 c78
-36 132 -95 229 -249 89 -142 139 -210 205 -279 101 -106 153 -246 140 -381
-7 -78 -17 -110 -52 -160 -34 -50 -94 -80 -168 -86 -82 -7 -153 14 -241 71
-106 69 -180 91 -300 91 -115 0 -186 -19 -268 -71 -102 -66 -157 -87 -234 -92
-64 -4 -79 -1 -128 22 -65 33 -97 71 -119 145 -44 152 0 318 120 453 82 91
132 158 213 288 93 147 132 194 187 226 76 45 119 54 244 51 100 -2 122 -6
172 -29z"/>
<path d="M4050 3827 c-81 -24 -124 -50 -196 -121 -266 -264 -235 -783 55 -930
156 -80 315 -45 447 97 103 112 158 245 171 412 12 160 -49 346 -144 441 -89
88 -229 131 -333 101z m123 -168 c47 -13 112 -70 138 -121 25 -48 49 -151 49
-208 0 -67 -26 -177 -57 -240 -38 -78 -126 -165 -182 -180 -89 -23 -181 22
-226 110 -55 108 -68 228 -40 349 38 158 155 289 270 300 6 0 27 -4 48 -10z"/>
<path d="M675 3146 c-82 -20 -146 -56 -206 -115 -63 -64 -104 -140 -120 -225
-19 -107 6 -156 82 -156 44 0 79 36 79 80 0 50 29 126 65 167 41 48 103 79
176 89 65 9 99 38 99 86 -1 77 -60 102 -175 74z"/>
<path d="M1069 3145 c-29 -16 -52 -66 -42 -93 3 -9 15 -27 26 -39 18 -20 30
-23 99 -23 70 0 82 3 103 25 32 31 32 75 1 112 -21 24 -32 28 -92 30 -48 2
-77 -1 -95 -12z"/>
<path d="M2276 2949 c-130 -31 -226 -172 -226 -333 0 -181 112 -368 263 -439
321 -152 569 170 398 518 -65 131 -164 218 -286 249 -66 18 -91 18 -149 5z
m168 -197 c86 -47 148 -159 150 -271 1 -113 -44 -174 -129 -174 -139 0 -272
202 -241 367 7 39 48 93 80 107 30 12 84 1 140 -29z"/>
<path d="M4744 2946 c-277 -70 -435 -453 -281 -683 62 -93 174 -143 278 -123
164 31 293 148 348 313 99 297 -85 559 -345 493z m144 -183 c13 -8 33 -35 44
-61 66 -149 -76 -395 -229 -395 -85 0 -128 57 -127 168 1 113 53 218 130 266
81 50 131 56 182 22z"/>
</g>
</svg>
